<svg width="700" height="700" viewBox="0 0 700 700" fill="none" xmlns="http://www.w3.org/2000/svg">
<path d="M14.5835 189.583V583.333C14.5835 598.804 20.7293 613.642 31.6689 624.581C42.6086 635.521 57.4459 641.667 72.9168 641.667H627.084C642.554 641.667 657.392 635.521 668.331 624.581C679.271 613.642 685.417 598.804 685.417 583.333V189.583H14.5835Z" fill="#008080"/>
<path d="M685.417 204.167H14.5835V87.5C14.5835 79.7645 17.6564 72.3459 23.1262 66.8761C28.596 61.4062 36.0147 58.3333 43.7502 58.3333H189.583L247.917 116.667H627.084C642.554 116.667 657.392 122.812 668.331 133.752C679.271 144.692 685.417 159.529 685.417 175V204.167Z" fill="#00CEB5"/>
<path d="M154.5 422.5H127.25L127.125 417.938H149.938C155.021 417.938 159.312 417.25 162.812 415.875C166.312 414.5 168.958 412.438 170.75 409.688C172.542 406.896 173.438 403.417 173.438 399.25C173.438 395.083 172.521 391.625 170.688 388.875C168.854 386.125 166.104 384.062 162.438 382.688C158.812 381.312 154.271 380.625 148.812 380.625H128.812V467H123.75V376H148.812C153.438 376 157.583 376.458 161.25 377.375C164.917 378.292 168.021 379.729 170.562 381.688C173.146 383.604 175.125 386.042 176.5 389C177.875 391.958 178.562 395.458 178.562 399.5C178.562 403.25 177.812 406.625 176.312 409.625C174.812 412.625 172.646 415.083 169.812 417C167.021 418.875 163.604 420.021 159.562 420.438L154.5 422.5ZM153.875 467H126.188L128.375 462.375H153.875C158.75 462.375 162.917 461.562 166.375 459.938C169.875 458.271 172.562 455.917 174.438 452.875C176.354 449.792 177.312 446.104 177.312 441.812C177.312 438.354 176.479 435.167 174.812 432.25C173.146 429.292 170.625 426.938 167.25 425.188C163.875 423.396 159.625 422.5 154.5 422.5H139.25L139.375 417.938H161.312L162 419.562C165.958 420.021 169.458 421.292 172.5 423.375C175.583 425.458 178 428.104 179.75 431.312C181.5 434.479 182.375 437.938 182.375 441.688C182.375 447.146 181.167 451.75 178.75 455.5C176.333 459.25 172.979 462.104 168.688 464.062C164.438 466.021 159.5 467 153.875 467ZM258.25 376H263.312V437.688C263.312 444.479 261.917 450.146 259.125 454.688C256.375 459.229 252.604 462.625 247.812 464.875C243.062 467.125 237.75 468.25 231.875 468.25C225.917 468.25 220.562 467.125 215.812 464.875C211.062 462.625 207.292 459.229 204.5 454.688C201.75 450.146 200.375 444.479 200.375 437.688V376H205.438V437.688C205.438 443.312 206.583 448.062 208.875 451.938C211.167 455.771 214.312 458.688 218.312 460.688C222.312 462.646 226.833 463.625 231.875 463.625C236.917 463.625 241.417 462.646 245.375 460.688C249.375 458.688 252.521 455.771 254.812 451.938C257.104 448.062 258.25 443.312 258.25 437.688V376ZM352.812 376V467H347.75L291.5 384.688V467H286.375V376H291.5L347.75 458.188V376H352.812ZM402.188 467H380.625L380.75 462.375H402.188C408.729 462.375 414.479 460.854 419.438 457.812C424.438 454.771 428.354 450.562 431.188 445.188C434.021 439.771 435.438 433.542 435.438 426.5V416.312C435.438 411.062 434.625 406.25 433 401.875C431.375 397.5 429.083 393.729 426.125 390.562C423.208 387.396 419.729 384.958 415.688 383.25C411.646 381.5 407.229 380.625 402.438 380.625H380.25V376H402.438C407.896 376 412.938 376.979 417.562 378.938C422.229 380.854 426.271 383.604 429.688 387.188C433.104 390.729 435.75 395 437.625 400C439.542 404.958 440.5 410.458 440.5 416.5V426.5C440.5 432.542 439.542 438.062 437.625 443.062C435.75 448.021 433.083 452.292 429.625 455.875C426.208 459.417 422.167 462.167 417.5 464.125C412.875 466.042 407.771 467 402.188 467ZM382.188 376V467H377.125V376H382.188ZM512.125 462.375V467H463.875V462.375H512.125ZM466.125 376V467H461V376H466.125ZM583.5 462.375V467H530.438V462.375H583.5ZM532.688 376V467H527.625V376H532.688ZM577.125 417.812V422.5H530.438V417.812H577.125ZM583.375 376V380.625H530.438V376H583.375Z" fill="white"/>
</svg>
