<?xml version="1.0" encoding="UTF-8"?>
<svg width="74.996mm" height="75.129mm" version="1.1" viewBox="0 0 74.996 75.129" xmlns="http://www.w3.org/2000/svg">
 <g transform="translate(-69.018 -58.639)">
  <path d="m81.48 132.94c-9.166-3.255-12.715-14.966-8.5206-28.112 1.0645-3.3361 4.8214-11.621 5.1299-11.312 0.0766 0.0766-0.17479 1.4334-0.55868 3.0149-4.648 19.15-1.1889 31.471 8.839 31.485 6.4683 9e-3 13.378-6.7855 23.853-23.456 4.3935-6.9921 4.1694-6.6941 3.8472-5.1153-0.92655 4.5404-4.588 13.251-7.8594 18.697-7.5695 12.602-16.265 17.805-24.73 14.799zm38.386-1.9392c-3.4905-0.63225-8.1079-2.2555-12.63-4.4402-3.8246-1.8477-4.3217-2.2678-1.9833-1.6763 18.647 4.7171 30.725 2.4508 32.851-6.1645 1.2784-5.1803-1.3417-9.8023-9.3422-16.48-2.9492-2.4617-11.689-8.46-14.013-9.8516-5.6254-3.3969-3.9133-2.1198-5.6254-3.3969-2.3008-1.801 9.6853 2.4431 15.699 5.5586 12.84 6.6522 19.218 13.906 19.192 21.827-0.0353 10.998-10.196 17.151-24.148 14.624zm-18.68-27.893c-5.7541-1.6975-13.804-5.3571-18.521-8.4204-10.987-7.135-15.585-15.416-12.897-23.228 3.9874-11.59 18.809-13.89 36.118-5.6061 3.244 1.5526 3.8166 2.1657 1.4214 1.522-15.465-4.1567-28.364-2.3296-31.762 4.4993-3.857 7.7502 4.0292 16.839 26.332 30.348 3.4035 2.0615 3.3835 2.0871-0.69081 0.8852zm33.869-4.6341c1e-3 -0.14552 0.15549-0.8202 0.34312-1.4993 3.6581-13.239 2.7021-25.913-2.285-30.291-7.8469-6.8897-18.249 0.97258-32.257 24.382-1.016 1.6977-1.8978 3.0868-1.9596 3.0868-0.13941 0 0.79222-3.7384 1.2308-4.9389 3.2972-9.025 5.2198-12.786 10.46-20.461 13.224-19.369 35.161-8.9314 30.66 14.589-0.98475 5.1468-6.2133 17.924-6.1925 15.133z" fill="#4ab563" stroke-width=".35278"/>
 </g>
</svg>
