<svg width="204" height="204" viewBox="0 0 204 204" fill="none" xmlns="http://www.w3.org/2000/svg">
<path d="M8.5 148.75C7.37283 148.75 6.29183 149.198 5.4948 149.995C4.69777 150.792 4.25 151.873 4.25 153V195.5C4.25 196.627 4.69777 197.708 5.4948 198.505C6.29183 199.302 7.37283 199.75 8.5 199.75H195.5C196.627 199.75 197.708 199.302 198.505 198.505C199.302 197.708 199.75 196.627 199.75 195.5V153C199.75 151.873 199.302 150.792 198.505 149.995C197.708 149.198 196.627 148.75 195.5 148.75C194.373 148.75 193.292 149.198 192.495 149.995C191.698 150.792 191.25 151.873 191.25 153V191.25H12.75V153C12.75 151.873 12.3022 150.792 11.5052 149.995C10.7082 149.198 9.62717 148.75 8.5 148.75Z" fill="#B3B3B3"/>
<path d="M148.75 97.75H110.5V8.5C110.5 7.37283 110.052 6.29183 109.255 5.4948C108.458 4.69777 107.377 4.25 106.25 4.25H97.7497C96.6226 4.25 95.5416 4.69777 94.7445 5.4948C93.9475 6.29183 93.4997 7.37283 93.4997 8.5V97.75H55.2497C54.4523 97.7501 53.671 97.9746 52.9952 98.3978C52.3193 98.8209 51.7761 99.4257 51.4277 100.143C51.0793 100.86 50.9396 101.661 51.0248 102.454C51.1099 103.247 51.4164 104 51.9092 104.627L98.6592 164.126C99.0569 164.632 99.5642 165.041 100.143 165.322C100.722 165.603 101.356 165.749 102 165.749C102.643 165.749 103.278 165.603 103.857 165.322C104.435 165.041 104.943 164.632 105.34 164.126L152.09 104.627C152.583 104 152.89 103.247 152.975 102.454C153.06 101.661 152.92 100.86 152.572 100.143C152.223 99.4257 151.68 98.8209 151.004 98.3978C150.328 97.9746 149.547 97.7501 148.75 97.75Z" fill="#008080"/>
</svg>
